<?xml version="1.0" encoding="utf-8"?>
<!-- Generator: Adobe Illustrator 16.0.0, SVG Export Plug-In . SVG Version: 6.00 Build 0)  -->
<!DOCTYPE svg PUBLIC "-//W3C//DTD SVG 1.1//EN" "http://www.w3.org/Graphics/SVG/1.1/DTD/svg11.dtd">
<svg version="1.1" id="Layer_1" xmlns="http://www.w3.org/2000/svg" xmlns:xlink="http://www.w3.org/1999/xlink" x="0px" y="0px"
	 width="232.299px" height="51.601px" viewBox="0 0 232.299 51.601" enable-background="new 0 0 232.299 51.601"
	 xml:space="preserve">
<g>
	<path fill="#AB9D7F" d="M51.561,42.43h7.467c5.692,0,7.156-5.33,7.156-9.029c0-3.264-1.2-8.21-7.011-8.21h-7.612V42.43z
		 M55.09,28.168h3.459c1.536,0,3.961,0.406,3.961,5.498c0,2.832-0.985,5.785-3.914,5.785H55.09V28.168z M81.575,25.19H68.896v17.24
		h13.085v-3.049h-9.555v-4.467h8.403v-3.049h-8.403v-3.627h9.148V25.19z M95.429,37.196H95.38L88.537,25.19h-3.793v17.24h3.361
		V30.137h0.048l7.036,12.293h3.601V25.19h-3.361V37.196z M109.57,28.239h5.211V25.19h-14.023v3.048h5.211V42.43h3.601V28.239z
		 M118.404,38.875h6.362l1.104,3.555h3.914l-6.074-17.24h-4.154l-6.147,17.24h3.793L118.404,38.875z M121.574,29.081h0.047
		l2.138,6.818h-4.394L121.574,29.081z M135.691,25.19h-3.601v17.24h12.173v-3.121h-8.572V25.19z M157.037,36.211h4.129
		c4.636,0,5.5-3.938,5.5-5.498c0-3.387-2.018-5.523-5.354-5.523h-7.876v17.24h3.602V36.211z M157.037,33.233v-5.064h2.857
		c2.232,0,3.169,0.695,3.169,2.377c0,0.768,0,2.688-2.688,2.688H157.037z M169.451,42.43h3.529v-6.748h3.721
		c2.666,0,2.81,0.914,2.81,3.266c0,1.777,0.146,2.666,0.385,3.482h3.986v-0.457c-0.769-0.287-0.769-0.912-0.769-3.434
		c0-3.217-0.769-3.744-2.186-4.369c1.705-0.576,2.666-2.209,2.666-4.105c0-1.49-0.84-4.875-5.428-4.875h-8.715V42.43z
		 M172.98,32.778v-4.609h4.49c2.111,0,2.521,1.344,2.521,2.258c0,1.703-0.912,2.352-2.785,2.352H172.98z M199.463,25.19h-12.676
		v17.24h13.086v-3.049h-9.558v-4.467h8.404v-3.049h-8.404v-3.627h9.147V25.19z M201.912,37.124c0,2.137,1.082,5.764,7.373,5.764
		c1.512,0,6.795-0.457,6.795-5.643c0-3.098-2.162-4.059-4.515-4.635l-4.202-1.033c-0.72-0.168-1.824-0.455-1.824-1.801
		c0-1.561,1.633-2.064,3-2.064c3.146,0,3.435,1.824,3.531,2.594h3.456c-0.022-2.113-1.44-5.572-6.723-5.572
		c-5.595,0-6.626,3.386-6.626,5.306c0,3.795,2.688,4.418,5.474,5.066l1.849,0.434c1.824,0.432,3.121,0.791,3.121,2.137
		c0,1.824-1.896,2.232-3.602,2.232c-3.145,0-3.625-1.824-3.648-2.785H201.912z M217.928,37.124c0,2.137,1.081,5.764,7.372,5.764
		c1.513,0,6.795-0.457,6.795-5.643c0-3.098-2.161-4.059-4.515-4.635l-4.201-1.033c-0.721-0.168-1.825-0.455-1.825-1.801
		c0-1.561,1.633-2.064,3.002-2.064c3.146,0,3.433,1.824,3.528,2.594h3.459c-0.024-2.113-1.441-5.572-6.723-5.572
		c-5.596,0-6.629,3.386-6.629,5.306c0,3.795,2.69,4.418,5.475,5.066l1.85,0.434c1.825,0.432,3.121,0.791,3.121,2.137
		c0,1.824-1.896,2.232-3.602,2.232c-3.146,0-3.625-1.824-3.649-2.785H217.928z"/>
	<path fill="#AB9D7F" d="M136.008,8.952h-0.847v8.955h0.847V8.952z M144.305,17.907h0.983V8.952h-0.846v7.822h-0.024l-5.175-7.822
		h-0.958v8.955h0.846v-7.812h0.025L144.305,17.907z M146.471,9.673h2.836v8.234h0.847V9.673h2.835V8.952h-6.518V9.673z
		 M160.266,17.907v-0.722h-5.235v-3.558h4.615v-0.721h-4.615V9.673h5.112V8.952h-5.957v8.955H160.266z M162.607,13.118V9.673h2.686
		c1.133,0,2.178,0.324,2.178,1.667c0,1.256-0.971,1.778-2.227,1.778H162.607z M165.268,13.84c0.847,0,1.58,0.124,1.779,1.094
		c0.137,0.685,0.051,2.364,0.398,2.974h0.934V17.82c-0.225-0.175-0.336-0.549-0.375-1.903c-0.023-0.945-0.086-2.065-1.143-2.425
		c1.031-0.461,1.455-1.059,1.455-2.189c0-1.655-1.083-2.351-3.049-2.351h-3.506v8.955h0.846V13.84H165.268z M176.055,17.907h0.981
		V8.952h-0.845v7.822h-0.025l-5.174-7.822h-0.958v8.955h0.845v-7.812h0.026L176.055,17.907z M179.078,17.907l1.057-2.812h4.08
		l1.032,2.812h0.871l-3.433-8.955h-0.958l-3.521,8.955H179.078z M182.176,9.673l1.754,4.702h-3.508L182.176,9.673z M194.54,11.551
		c-0.286-1.853-1.63-2.836-3.47-2.836c-2.376,0-4.167,1.294-4.167,4.714c0,2.538,1.095,4.714,3.856,4.714
		c2.399,0,3.482-1.455,3.879-3.184h-0.883c-0.334,1.418-1.293,2.463-2.834,2.463c-2.438,0-3.172-2.015-3.172-4.018
		c0-2.114,0.932-3.968,3.096-3.968c1.531,0,2.476,0.584,2.824,2.114H194.54z M197.428,8.952h-0.847v8.955h0.847V8.952z
		 M199.383,13.441c0,2.574,1.405,4.701,4.166,4.701c2.762,0,4.18-2.127,4.18-4.701c0-2.625-1.418-4.727-4.217-4.727
		C200.838,8.715,199.369,10.829,199.383,13.441 M203.562,17.422c-2.339,0-3.333-1.866-3.333-3.98c0-2.076,1.007-4.005,3.308-4.005
		c2.065,0,3.347,1.518,3.347,4.005C206.883,15.532,205.887,17.422,203.562,17.422 M215.391,17.907h0.984V8.952h-0.847v7.822h-0.024
		l-5.175-7.822h-0.957v8.955h0.845v-7.812h0.025L215.391,17.907z M218.416,17.907l1.057-2.812h4.08l1.033,2.812h0.869l-3.432-8.955
		h-0.958l-3.521,8.955H218.416z M221.514,9.673l1.752,4.702h-3.506L221.514,9.673z M232.299,17.907v-0.722h-4.802V8.952h-0.845
		v8.955H232.299z"/>
	<path fill="#AB9D7F" d="M58.994,11.551c-0.286-1.854-1.63-2.835-3.471-2.835c-2.375,0-4.166,1.293-4.166,4.714
		c0,2.537,1.094,4.713,3.856,4.713c2.4,0,3.482-1.455,3.88-3.185H58.21c-0.336,1.419-1.293,2.464-2.836,2.464
		c-2.437,0-3.171-2.016-3.171-4.018c0-2.115,0.932-3.968,3.097-3.968c1.529,0,2.475,0.585,2.823,2.114H58.994z M60.399,13.441
		c0,2.575,1.406,4.701,4.167,4.701c2.761,0,4.179-2.126,4.179-4.701c0-2.624-1.418-4.726-4.217-4.726
		C61.854,8.716,60.386,10.829,60.399,13.441 M64.578,17.422c-2.338,0-3.333-1.866-3.333-3.98c0-2.077,1.007-4.005,3.308-4.005
		c2.065,0,3.346,1.517,3.346,4.005C67.899,15.53,66.904,17.422,64.578,17.422 M76.419,17.906h0.982V8.951h-0.845v7.823h-0.025
		l-5.174-7.823h-0.958v8.955h0.846v-7.811h0.025L76.419,17.906z M86.232,14.002c-0.012,0.671-0.099,1.293-0.385,1.853
		c-0.585,1.156-1.729,1.567-2.699,1.567c-2.053,0-3.247-1.729-3.247-3.706c0-2.538,0.996-4.279,3.359-4.279
		c1.33,0,2.512,0.771,2.81,2.114h0.871c-0.385-1.915-1.865-2.835-3.743-2.835c-2.824,0-4.143,2.04-4.143,4.663
		c0,3.185,1.655,4.764,3.919,4.764c1.766,0,2.724-0.696,3.345-1.766v1.529h0.722v-4.627H83.21v0.723H86.232z M89.914,13.118V9.673
		h2.687c1.132,0,2.176,0.322,2.176,1.667c0,1.256-0.97,1.778-2.226,1.778H89.914z M92.576,13.84c0.846,0,1.58,0.125,1.778,1.094
		c0.137,0.685,0.05,2.364,0.399,2.973h0.932v-0.087c-0.223-0.174-0.336-0.547-0.373-1.903c-0.025-0.944-0.087-2.063-1.144-2.425
		c1.032-0.461,1.455-1.058,1.455-2.189c0-1.654-1.082-2.351-3.047-2.351h-3.508v8.955h0.846V13.84H92.576z M103.459,17.906v-0.721
		h-5.237v-3.558h4.615v-0.722h-4.615V9.673h5.112V8.951h-5.958v8.955H103.459z M104.503,15.232c0,1.94,1.381,2.91,3.247,2.91
		c2.064,0,3.271-0.97,3.271-2.612c0-3.47-5.075-1.803-5.46-4.117c-0.15-0.92,0.472-1.977,2.189-1.977
		c1.144,0,2.201,0.585,2.201,1.953h0.809c0.012-1.456-0.995-2.674-3.01-2.674c-2.003,0-3.035,1.155-3.035,2.399
		c0,3.521,5.46,1.68,5.46,4.453c0,0.982-0.672,1.854-2.276,1.854c-1.368,0-2.438-0.585-2.574-2.189H104.503z M112.104,15.232
		c0,1.94,1.38,2.91,3.246,2.91c2.065,0,3.271-0.97,3.271-2.612c0-3.47-5.074-1.803-5.46-4.117c-0.149-0.92,0.473-1.977,2.189-1.977
		c1.145,0,2.202,0.585,2.202,1.953h0.809c0.013-1.456-0.995-2.674-3.01-2.674c-2.002,0-3.035,1.155-3.035,2.399
		c0,3.521,5.46,1.68,5.46,4.453c0,0.982-0.671,1.854-2.275,1.854c-1.368,0-2.438-0.585-2.575-2.189H112.104z M119.827,13.441
		c0,2.575,1.405,4.701,4.167,4.701s4.178-2.126,4.178-4.701c0-2.624-1.416-4.726-4.216-4.726
		C121.282,8.716,119.814,10.829,119.827,13.441 M124.006,17.422c-2.338,0-3.332-1.866-3.332-3.98c0-2.077,1.006-4.005,3.308-4.005
		c2.065,0,3.346,1.517,3.346,4.005C127.327,15.53,126.332,17.422,124.006,17.422"/>
	<path fill="#AB9D7F" d="M18.671,13.784c-0.753-1.626-0.856-3.277-0.311-4.955c0.743-2.287,2.073-3.996,3.991-5.125
		c1.897-1.171,4.005-1.38,6.322-0.627s3.884,2.156,4.701,4.208c0.817,2.052,0.824,4.313,0.021,6.783
		c-1.109,3.416-3.744,5.661-7.903,6.737C21.697,17.751,19.423,15.411,18.671,13.784 M37.919,14.932
		c1.001-3.079,0.613-5.987-1.161-8.722c-1.796-2.774-4.142-4.633-7.039-5.573c-3.201-1.04-6.211-0.806-9.028,0.707
		c-2.828,1.543-4.697,3.717-5.609,6.521c-0.584,1.8-0.615,3.812-0.091,6.039c0.524,2.226,3.25,5.354,8.178,9.382
		c4.55,3.738,7.298,7.058,8.243,9.96c0.913,2.895,0.816,6.047-0.293,9.463c-0.535,1.646-1.265,3.111-2.187,4.396
		c2.713-1.816,4.55-4.201,5.511-7.16c1.883-5.793-0.357-11.561-6.716-17.302C33.213,21.527,36.611,18.956,37.919,14.932"/>
	<path fill="#AB9D7F" d="M21.169,30.374c1.828,1.74,2.982,3.48,3.462,5.221c0.478,1.74,0.367,3.693-0.336,5.859
		c-0.912,2.805-2.574,4.861-4.987,6.166c-2.374,1.285-4.932,1.482-7.676,0.59c-2.715-0.881-4.715-2.508-6-4.881
		c-1.336-2.424-1.425-5.42-0.266-8.986c1.496-4.604,4.844-7.697,10.044-9.278C18.084,27.518,20.005,29.288,21.169,30.374
		 M0.669,32.614c-1.209,3.721-0.78,7.381,1.285,10.986c2.034,3.594,4.943,6.006,8.724,7.232c3.628,1.18,7.125,1.002,10.49-0.535
		c3.334-1.547,5.621-4.225,6.859-8.035c0.753-2.318,0.934-4.535,0.543-6.652c-0.422-2.023-1.169-3.717-2.244-5.078
		c-1.013-1.238-3.005-3.1-5.974-5.582c-4.878-4.079-7.686-7.368-8.425-9.867c-0.76-2.539-0.752-4.998,0.021-7.377
		c0.851-2.622,2.281-4.635,4.288-6.04c-4.068,1.106-6.681,3.442-7.84,7.011c-1.526,4.695,0.036,9.435,4.686,14.215
		C6.333,24.678,2.195,27.917,0.669,32.614"/>
	<path fill="#AB9D7F" d="M45.079,3.087C45.079,1.383,43.697,0,41.993,0c-1.705,0-3.087,1.383-3.087,3.087s1.382,3.087,3.087,3.087
		C43.697,6.174,45.079,4.791,45.079,3.087 M43.759,3.324c0,1.431-0.865,2.589-1.931,2.589c-1.067,0-1.932-1.158-1.932-2.589
		c0-1.43,0.865-2.589,1.932-2.589C42.894,0.735,43.759,1.895,43.759,3.324"/>
</g>
<rect x="39.262" y="7.352" fill="#AB9D7F" width="5.461" height="0.445"/>
</svg>
