<?xml version="1.0" encoding="utf-8"?>
<!-- Generator: Adobe Illustrator 16.0.0, SVG Export Plug-In . SVG Version: 6.00 Build 0)  -->
<!DOCTYPE svg PUBLIC "-//W3C//DTD SVG 1.1//EN" "http://www.w3.org/Graphics/SVG/1.1/DTD/svg11.dtd">
<svg version="1.1" id="Layer_1" xmlns="http://www.w3.org/2000/svg" xmlns:xlink="http://www.w3.org/1999/xlink" x="0px" y="0px"
	 width="113px" height="132px" viewBox="0 0 413 432" enable-background="new 0 0 413 432" xml:space="preserve">
<g>
	<path fill="#86754D" d="M2.96,429.172h16.873c12.861,0,16.171-12.046,16.171-20.402c0-7.38-2.713-18.556-15.844-18.556H2.96
		V429.172z M10.934,396.943h7.816c3.471,0,8.952,0.922,8.952,12.424c0,6.403-2.226,13.076-8.844,13.076h-7.924V396.943z
		 M70.782,390.214H42.133v38.958h29.571v-6.893H50.111v-10.092h18.988v-6.889H50.111v-8.194h20.671V390.214z M102.089,417.342
		h-0.108l-15.465-27.128h-8.572v38.958h7.596V401.39h0.108l15.899,27.782h8.139v-38.958h-7.597V417.342z M134.045,397.105h11.776
		v-6.891h-31.688v6.891h11.775v32.067h8.137V397.105z M154.009,421.14h14.378l2.496,8.032h8.844l-13.728-38.958h-9.385
		l-13.891,38.958h8.572L154.009,421.14z M161.171,399.004h0.108l4.83,15.41h-9.93L161.171,399.004z M193.073,390.214h-8.137v38.958
		h27.509v-7.055h-19.373V390.214z M241.311,415.119h9.33c10.473,0,12.426-8.898,12.426-12.424c0-7.65-4.557-12.48-12.099-12.48
		H233.17v38.958h8.141V415.119z M241.311,408.39v-11.447h6.455c5.047,0,7.162,1.573,7.162,5.371c0,1.737,0,6.076-6.076,6.076
		H241.311z M269.361,429.172h7.975v-15.247h8.41c6.023,0,6.348,2.061,6.348,7.38c0,4.014,0.327,6.021,0.87,7.867h9.007v-1.032
		c-1.736-0.651-1.736-2.061-1.736-7.759c0-7.271-1.737-8.464-4.938-9.874c3.853-1.302,6.024-4.992,6.024-9.279
		c0-3.363-1.899-11.014-12.265-11.014h-19.694V429.172z M277.336,407.36v-10.417h10.146c4.774,0,5.697,3.037,5.697,5.101
		c0,3.853-2.061,5.316-6.294,5.316H277.336z M337.182,390.214h-28.646v38.958h29.57v-6.893H316.51v-10.092h18.991v-6.889H316.51
		v-8.194h20.672V390.214z M342.717,417.18c0,4.83,2.441,13.024,16.657,13.024c3.418,0,15.354-1.032,15.354-12.752
		c0-7-4.884-9.172-10.199-10.474l-9.496-2.331c-1.627-0.381-4.122-1.032-4.122-4.071c0-3.525,3.69-4.666,6.78-4.666
		c7.109,0,7.761,4.123,7.978,5.86h7.812c-0.054-4.773-3.254-12.589-15.192-12.589c-12.64,0-14.974,7.651-14.974,11.992
		c0,8.574,6.075,9.983,12.369,11.449l4.18,0.977c4.123,0.976,7.054,1.789,7.054,4.828c0,4.125-4.287,5.046-8.14,5.046
		c-7.107,0-8.193-4.122-8.248-6.294H342.717z M378.906,417.18c0,4.83,2.441,13.024,16.66,13.024c3.416,0,15.354-1.032,15.354-12.752
		c0-7-4.885-9.172-10.201-10.474l-9.495-2.331c-1.63-0.381-4.125-1.032-4.125-4.071c0-3.525,3.69-4.666,6.783-4.666
		c7.107,0,7.758,4.123,7.975,5.86h7.814c-0.055-4.773-3.255-12.589-15.193-12.589c-12.642,0-14.976,7.651-14.976,11.992
		c0,8.574,6.078,9.983,12.372,11.449l4.177,0.977c4.125,0.976,7.054,1.789,7.054,4.828c0,4.125-4.285,5.046-8.138,5.046
		c-7.108,0-8.192-4.122-8.247-6.294H378.906z"/>
	<path fill="#86754D" d="M193.787,353.519h-1.911v20.236h1.911V353.519z M212.538,373.755h2.222v-20.236h-1.912v17.679h-0.057
		l-11.692-17.679h-2.164v20.236h1.911v-17.652h0.056L212.538,373.755z M217.432,355.149h6.41v18.606h1.911v-18.606h6.408v-1.63
		h-14.729V355.149z M248.607,373.755v-1.63h-11.834v-8.038h10.429v-1.631h-10.429v-7.308h11.553v-1.63h-13.462v20.236H248.607z
		 M253.896,362.934v-7.785h6.07c2.559,0,4.918,0.73,4.918,3.767c0,2.839-2.191,4.019-5.029,4.019H253.896z M259.911,364.564
		c1.91,0,3.567,0.281,4.019,2.474c0.31,1.546,0.112,5.341,0.899,6.718h2.108v-0.197c-0.508-0.393-0.76-1.236-0.844-4.3
		c-0.057-2.136-0.197-4.666-2.586-5.48c2.334-1.04,3.289-2.391,3.289-4.946c0-3.739-2.445-5.312-6.886-5.312h-7.927v20.236h1.912
		v-9.191H259.911z M284.283,373.755h2.219v-20.236h-1.91v17.679h-0.056l-11.692-17.679h-2.164v20.236h1.91v-17.652h0.057
		L284.283,373.755z M291.117,373.755l2.389-6.352h9.219l2.332,6.352h1.969l-7.758-20.236h-2.164l-7.955,20.236H291.117z
		 M298.115,355.149l3.963,10.624h-7.926L298.115,355.149z M326.057,359.392c-0.646-4.187-3.683-6.407-7.842-6.407
		c-5.367,0-9.416,2.923-9.416,10.651c0,5.735,2.475,10.652,8.715,10.652c5.424,0,7.869-3.288,8.768-7.194h-1.995
		c-0.759,3.203-2.923,5.564-6.408,5.564c-5.509,0-7.168-4.553-7.168-9.078c0-4.777,2.109-8.966,6.999-8.966
		c3.458,0,5.594,1.32,6.381,4.777H326.057z M332.581,353.519h-1.911v20.236h1.911V353.519z M336.998,363.665
		c0,5.819,3.176,10.624,9.416,10.624s9.443-4.805,9.443-10.624c0-5.93-3.203-10.68-9.527-10.68
		C340.286,352.985,336.971,357.762,336.998,363.665 M346.441,372.659c-5.283,0-7.532-4.215-7.532-8.994
		c0-4.693,2.276-9.05,7.478-9.05c4.666,0,7.561,3.429,7.561,9.05C353.947,368.387,351.698,372.659,346.441,372.659 M373.176,373.755
		h2.221v-20.236h-1.912v17.679h-0.055l-11.692-17.679h-2.165v20.236h1.912v-17.652h0.056L373.176,373.755z M380.01,373.755
		l2.389-6.352h9.219l2.333,6.352h1.967l-7.756-20.236h-2.165l-7.954,20.236H380.01z M387.008,355.149l3.963,10.624h-7.926
		L387.008,355.149z M411.38,373.755v-1.63h-10.848v-18.606h-1.912v20.236H411.38z"/>
	<path fill="#86754D" d="M19.757,359.392c-0.647-4.188-3.682-6.407-7.842-6.407c-5.368,0-9.415,2.922-9.415,10.651
		c0,5.733,2.473,10.652,8.712,10.652c5.426,0,7.87-3.288,8.77-7.195h-1.995c-0.76,3.204-2.924,5.565-6.409,5.565
		c-5.508,0-7.167-4.555-7.167-9.078c0-4.779,2.108-8.966,6.999-8.966c3.456,0,5.593,1.32,6.379,4.777H19.757z M22.932,363.665
		c0,5.819,3.177,10.624,9.417,10.624c6.239,0,9.443-4.805,9.443-10.624c0-5.93-3.204-10.68-9.529-10.68
		C26.221,352.985,22.904,357.762,22.932,363.665 M32.377,372.659c-5.284,0-7.533-4.216-7.533-8.994c0-4.693,2.277-9.05,7.477-9.05
		c4.665,0,7.56,3.429,7.56,9.05C39.881,368.386,37.633,372.659,32.377,372.659 M59.134,373.754h2.22v-20.237h-1.911v17.681h-0.057
		l-11.692-17.681h-2.163v20.237h1.91v-17.651h0.057L59.134,373.754z M81.309,364.929c-0.028,1.518-0.224,2.923-0.871,4.188
		c-1.321,2.613-3.907,3.542-6.099,3.542c-4.638,0-7.336-3.907-7.336-8.375c0-5.735,2.249-9.669,7.589-9.669
		c3.007,0,5.677,1.742,6.352,4.777h1.967c-0.87-4.328-4.215-6.407-8.459-6.407c-6.381,0-9.361,4.609-9.361,10.538
		c0,7.195,3.739,10.766,8.854,10.766c3.991,0,6.156-1.574,7.561-3.991v3.457h1.63v-10.455H74.48v1.63H81.309z M89.629,362.934
		v-7.786H95.7c2.558,0,4.919,0.73,4.919,3.768c0,2.838-2.193,4.019-5.031,4.019H89.629z M95.644,364.564
		c1.911,0,3.57,0.281,4.019,2.474c0.309,1.546,0.112,5.34,0.9,6.717h2.107v-0.196c-0.505-0.394-0.758-1.236-0.842-4.301
		c-0.058-2.136-0.198-4.665-2.586-5.48c2.332-1.04,3.288-2.39,3.288-4.947c0-3.737-2.446-5.312-6.886-5.312h-7.926v20.237h1.911
		v-9.19H95.644z M120.237,373.754v-1.629h-11.833v-8.04h10.428v-1.63h-10.428v-7.308h11.551v-1.631h-13.463v20.237H120.237z
		 M122.597,367.711c0,4.384,3.12,6.577,7.336,6.577c4.665,0,7.391-2.193,7.391-5.902c0-7.842-11.466-4.075-12.338-9.303
		c-0.337-2.08,1.068-4.469,4.947-4.469c2.586,0,4.975,1.32,4.975,4.413h1.827c0.028-3.289-2.249-6.043-6.802-6.043
		c-4.526,0-6.858,2.613-6.858,5.424c0,7.954,12.339,3.795,12.339,10.062c0,2.22-1.518,4.188-5.144,4.188
		c-3.091,0-5.509-1.321-5.817-4.947H122.597z M139.771,367.711c0,4.384,3.119,6.577,7.335,6.577c4.666,0,7.392-2.193,7.392-5.902
		c0-7.842-11.467-4.075-12.339-9.303c-0.337-2.08,1.068-4.469,4.947-4.469c2.586,0,4.975,1.32,4.975,4.413h1.826
		c0.029-3.289-2.247-6.043-6.801-6.043c-4.525,0-6.858,2.613-6.858,5.424c0,7.954,12.338,3.795,12.338,10.062
		c0,2.22-1.517,4.188-5.143,4.188c-3.091,0-5.509-1.321-5.818-4.947H139.771z M157.224,363.665c0,5.819,3.176,10.624,9.416,10.624
		c6.24,0,9.443-4.805,9.443-10.624c0-5.93-3.203-10.68-9.527-10.68C160.512,352.985,157.196,357.762,157.224,363.665
		 M166.668,372.659c-5.284,0-7.533-4.216-7.533-8.994c0-4.693,2.277-9.05,7.477-9.05c4.666,0,7.561,3.429,7.561,9.05
		C174.173,368.386,171.924,372.659,166.668,372.659"/>
	<path fill="#86754D" d="M184.581,81.465c-4.353-9.401-4.95-18.947-1.8-28.642c4.295-13.218,11.983-23.092,23.069-29.622
		c10.966-6.763,23.145-7.971,36.541-3.619c13.391,4.351,22.447,12.459,27.17,24.319c4.719,11.862,4.762,24.928,0.123,39.203
		c-6.414,19.741-21.642,32.718-45.679,38.936C202.07,104.392,188.928,90.869,184.581,81.465 M295.828,88.092
		c5.783-17.798,3.543-34.601-6.713-50.405c-10.379-16.036-23.938-26.776-40.678-32.215c-18.506-6.013-35.899-4.651-52.185,4.088
		c-16.341,8.915-27.146,21.48-32.413,37.693c-3.381,10.401-3.557,22.034-0.526,34.901c3.024,12.87,18.78,30.945,47.263,54.23
		c26.3,21.601,42.178,40.789,47.642,57.566c5.279,16.722,4.719,34.951-1.695,54.688c-3.093,9.518-7.306,17.989-12.641,25.412
		c15.684-10.49,26.303-24.284,31.857-41.381c10.881-33.482-2.063-66.819-38.82-100.001
		C268.631,126.216,288.27,111.357,295.828,88.092"/>
	<path fill="#86754D" d="M199.021,177.345c10.564,10.06,17.233,20.118,20.008,30.176c2.767,10.061,2.124,21.345-1.941,33.857
		c-5.269,16.217-14.879,28.095-28.825,35.644c-13.718,7.431-28.504,8.567-44.365,3.414c-15.688-5.099-27.246-14.502-34.673-28.219
		c-7.725-14.004-8.237-31.318-1.537-51.938c8.646-26.61,27.995-44.487,58.049-53.622
		C181.194,160.839,192.293,171.069,199.021,177.345 M80.538,190.289c-6.987,21.503-4.511,42.667,7.427,63.497
		c11.759,20.771,28.567,34.709,50.421,41.811c20.972,6.814,41.181,5.781,60.63-3.097c19.27-8.938,32.485-24.418,39.644-46.451
		c4.352-13.391,5.395-26.204,3.136-38.437c-2.436-11.701-6.756-21.485-12.969-29.35c-5.854-7.164-17.368-17.919-34.527-32.262
		c-28.192-23.577-44.424-42.588-48.692-57.031c-4.392-14.676-4.35-28.887,0.117-42.634c4.923-15.155,13.184-26.792,24.786-34.909
		c-23.512,6.388-38.614,19.895-45.313,40.516c-8.82,27.141,0.206,54.529,27.082,82.159
		C113.271,144.419,89.356,163.15,80.538,190.289"/>
	<path fill="#86754D" d="M337.211,19.634c0-9.851-7.986-17.838-17.839-17.838s-17.84,7.987-17.84,17.838
		c0,9.853,7.987,17.839,17.84,17.839S337.211,29.487,337.211,19.634 M329.581,21.008c0,8.262-4.998,14.962-11.163,14.962
		c-6.164,0-11.162-6.7-11.162-14.962c0-8.264,4.998-14.962,11.162-14.962C324.583,6.046,329.581,12.744,329.581,21.008"/>
</g>
<rect x="303.589" y="44.281" fill="#86754D" width="31.565" height="2.575"/>
</svg>
