<?xml version="1.0" encoding="utf-8"?>
<!-- Generator: Adobe Illustrator 16.0.0, SVG Export Plug-In . SVG Version: 6.00 Build 0)  -->
<!DOCTYPE svg PUBLIC "-//W3C//DTD SVG 1.1//EN" "http://www.w3.org/Graphics/SVG/1.1/DTD/svg11.dtd">
<svg version="1.1" id="Layer_1" xmlns="http://www.w3.org/2000/svg" xmlns:xlink="http://www.w3.org/1999/xlink" x="0px" y="0px"
     width="104.882px" height="104.882px" viewBox="0 0 104.882 104.882" enable-background="new 0 0 104.882 104.882"
     xml:space="preserve">
    <g>
        <g>
            <g>
                <g>
                    <path fill="#FFFFFF" d="M54.003,77.441h-9.277l-0.098-25.001h-3.125v-9.374h3.125V38.65c0-7.028,4.458-11.209,12.231-11.209
                        h6.473v9.375h-6.204c-3.029,0-3.125,0.877-3.125,3.125v3.125h9.375l-0.781,9.374h-8.594V77.441z"/>
                </g>
            </g>
        </g>
        <g>
            <path fill="#FFFFFF" d="M52.441,7.441c24.813,0,45,20.187,45,45c0,24.813-20.187,45-45,45c-24.813,0-45-20.187-45-45
                C7.441,27.628,27.628,7.441,52.441,7.441 M52.441,2.441c-27.614,0-50,22.386-50,50c0,27.615,22.386,50,50,50s50-22.385,50-50
                C102.441,24.827,80.055,2.441,52.441,2.441L52.441,2.441z"/>
        </g>
    </g>
</svg>
