<?xml version="1.0" encoding="utf-8"?>
<!-- Generator: Adobe Illustrator 16.0.0, SVG Export Plug-In . SVG Version: 6.00 Build 0)  -->
<!DOCTYPE svg PUBLIC "-//W3C//DTD SVG 1.1//EN" "http://www.w3.org/Graphics/SVG/1.1/DTD/svg11.dtd">
<svg version="1.1" id="Layer_1" xmlns="http://www.w3.org/2000/svg" xmlns:xlink="http://www.w3.org/1999/xlink" x="0px" y="0px"
     width="104.882px" height="104.882px" viewBox="0 0 104.882 104.882" enable-background="new 0 0 104.882 104.882"
     xml:space="preserve">
<g>
    <g>
        <polygon fill="#FFFFFF" points="74.818,42.535 74.818,35.869 71.486,35.869 71.486,42.535 64.818,42.535 64.818,45.869 
            71.486,45.869 71.486,52.535 74.818,52.535 74.818,45.869 81.486,45.869 81.486,42.535         "/>
        <path fill="#FFFFFF" d="M63.839,32.535H51.856c-1.592,0-3.311,0.22-5.146,0.659c-1.853,0.439-3.597,1.416-5.271,2.948
            c-1.236,1.224-2.161,2.619-2.786,4.181c-0.612,1.544-0.925,3.076-0.925,4.611c0,1.27,0.202,2.518,0.639,3.788
            c0.42,1.221,1.048,2.344,1.865,3.314c0.797,0.938,1.822,1.716,3.018,2.302c1.194,0.604,2.584,0.899,4.134,0.899
            c0.3,0,0.608-0.021,0.925-0.021c0.312-0.043,0.625-0.049,0.924-0.098c-0.146,0.391-0.286,0.781-0.391,1.126
            c-0.127,0.388-0.179,0.857-0.179,1.413c0,1.025,0.183,1.856,0.55,2.54c0.365,0.684,0.769,1.315,1.191,1.937
            c-0.67,0.039-1.445,0.115-2.327,0.195c-0.898,0.082-1.853,0.238-2.854,0.453c-1.01,0.221-2.021,0.521-3.057,0.879
            c-1.016,0.391-1.977,0.879-2.875,1.48c-1.699,1.156-2.874,2.479-3.512,3.988c-0.639,1.51-0.961,2.832-0.961,4.01
            c0,1.23,0.261,2.396,0.762,3.51c0.505,1.127,1.279,2.123,2.324,2.988c1.049,0.873,2.344,1.602,3.926,2.105
            c1.562,0.525,3.393,0.791,5.485,0.791c2.49,0,4.685-0.363,6.602-1.094c1.916-0.713,3.512-1.666,4.795-2.814
            c1.275-1.15,2.256-2.488,2.91-3.975c0.666-1.484,0.992-2.998,0.992-4.545c0-1.119-0.137-2.148-0.41-3.027s-0.631-1.66-1.08-2.344
            c-0.434-0.709-0.967-1.367-1.562-1.982c-0.6-0.602-1.221-1.234-1.83-1.826l-2.094-1.854c-0.312-0.293-0.637-0.67-0.992-1.074
            c-0.357-0.426-0.518-1.002-0.518-1.758c0-0.732,0.16-1.354,0.518-1.828c0.355-0.471,0.719-0.955,1.098-1.395
            c0.627-0.513,1.227-1.075,1.812-1.661c0.582-0.586,1.1-1.255,1.562-1.959c0.479-0.726,0.844-1.556,1.117-2.484
            s0.391-2.002,0.391-3.223s-0.146-2.298-0.463-3.271c-0.312-0.977-0.68-1.807-1.1-2.539s-0.869-0.801-1.332-1.32
            c-0.479-0.506-0.869-0.693-1.225-0.693h3.604L63.839,32.535z M55.228,66.996c0.84,0.654,1.473,1.158,1.973,1.828
            c0.502,0.648,0.893,1.229,1.137,1.895c0.258,0.678,0.375,1.381,0.375,2.215c0,2.051-0.73,3.703-2.168,5.025
            c-1.455,1.332-3.587,1.998-6.371,1.998c-3.142,0-5.642-0.729-7.475-2.229c-1.852-1.482-2.77-3.406-2.77-5.779
            c0-1.172,0.215-2.148,0.621-2.936c0.41-0.795,0.876-1.459,1.42-1.992c0.547-0.508,1.094-0.932,1.653-1.201
            c0.569-0.27,0.999-0.494,1.312-0.609c0.625-0.24,1.264-0.42,1.918-0.586c0.667-0.143,1.553-0.422,2.139-0.422
            C51.485,64.203,52.318,64.722,55.228,66.996z M55.285,49.063c-0.146,0.928-0.557,1.758-1.229,2.49
            c-0.461,0.537-1.05,0.977-1.773,1.318c-0.703,0.342-1.43,0.538-2.165,0.538c-1.253,0-2.317-0.412-3.229-1.221
            c-0.911-0.83-1.673-1.807-2.271-3c-0.6-1.2-1.049-2.469-1.332-3.836c-0.303-1.349-0.445-2.588-0.445-3.662
            c0-0.879,0.091-1.758,0.267-2.588c0.179-0.83,0.511-1.597,1.013-2.295c0.462-0.659,1.077-1.172,1.81-1.569
            c0.732-0.405,1.481-0.607,2.256-0.607c1.211,0,2.266,0.418,3.177,1.218c0.908,0.812,1.68,1.837,2.289,3.058
            c0.628,1.221,1.089,2.542,1.402,3.955c0.312,1.416,0.463,2.692,0.463,3.9C55.515,47.354,55.431,48.136,55.285,49.063z"/>
    </g>
    <g>
        <path fill="#FFFFFF" d="M52.531,6.915c24.813,0,45,20.187,45,45c0,24.812-20.187,44.999-45,44.999s-45-20.187-45-44.999
            C7.531,27.102,27.718,6.915,52.531,6.915 M52.531,1.915c-27.614,0-50,22.386-50,50s22.386,49.999,50,49.999
            c27.615,0,50-22.385,50-49.999S80.146,1.915,52.531,1.915L52.531,1.915z"/>
    </g>
</g>
</svg>
